ISO-10303-21;
HEADER;
/* Generated by software containing ST-Developer
 * from STEP Tools, Inc. (www.steptools.com) 
 */

FILE_DESCRIPTION(
/* description */ (''),
/* implementation_level */ '2;1');

FILE_NAME(
/* name */ 'Gasket.step',
/* time_stamp */ '2026-04-27T16:38:38+09:00',
/* author */ (''),
/* organization */ (''),
/* preprocessor_version */ 'ST-DEVELOPER v20.1',
/* originating_system */ 'Autodesk Translation Framework v15.8.0.0',
/* authorisation */ '');

FILE_SCHEMA (('AUTOMOTIVE_DESIGN { 1 0 10303 214 3 1 1 }'));
ENDSEC;

DATA;
#10=MECHANICAL_DESIGN_GEOMETRIC_PRESENTATION_REPRESENTATION('',(#13,#14),
#656);
#11=SHAPE_REPRESENTATION_RELATIONSHIP('SRR','None',#663,#12);
#12=ADVANCED_BREP_SHAPE_REPRESENTATION('',(#15,#16),#655);
#13=STYLED_ITEM('',(#672),#15);
#14=STYLED_ITEM('',(#672),#16);
#15=MANIFOLD_SOLID_BREP('Cuerpo1',#375);
#16=MANIFOLD_SOLID_BREP('Cuerpo4',#376);
#17=FACE_BOUND('',#71,.T.);
#18=FACE_BOUND('',#72,.T.);
#19=FACE_BOUND('',#73,.T.);
#20=FACE_BOUND('',#74,.T.);
#21=FACE_BOUND('',#75,.T.);
#22=FACE_BOUND('',#77,.T.);
#23=FACE_BOUND('',#78,.T.);
#24=FACE_BOUND('',#79,.T.);
#25=FACE_BOUND('',#80,.T.);
#26=FACE_BOUND('',#81,.T.);
#27=FACE_BOUND('',#88,.T.);
#28=FACE_BOUND('',#91,.T.);
#29=FACE_BOUND('',#93,.T.);
#30=PLANE('',#396);
#31=PLANE('',#400);
#32=PLANE('',#404);
#33=PLANE('',#408);
#34=PLANE('',#412);
#35=PLANE('',#416);
#36=PLANE('',#429);
#37=PLANE('',#433);
#38=PLANE('',#434);
#39=FACE_OUTER_BOUND('',#60,.T.);
#40=FACE_OUTER_BOUND('',#61,.T.);
#41=FACE_OUTER_BOUND('',#62,.T.);
#42=FACE_OUTER_BOUND('',#63,.T.);
#43=FACE_OUTER_BOUND('',#64,.T.);
#44=FACE_OUTER_BOUND('',#65,.T.);
#45=FACE_OUTER_BOUND('',#66,.T.);
#46=FACE_OUTER_BOUND('',#67,.T.);
#47=FACE_OUTER_BOUND('',#68,.T.);
#48=FACE_OUTER_BOUND('',#69,.T.);
#49=FACE_OUTER_BOUND('',#70,.T.);
#50=FACE_OUTER_BOUND('',#76,.T.);
#51=FACE_OUTER_BOUND('',#82,.T.);
#52=FACE_OUTER_BOUND('',#83,.T.);
#53=FACE_OUTER_BOUND('',#84,.T.);
#54=FACE_OUTER_BOUND('',#85,.T.);
#55=FACE_OUTER_BOUND('',#86,.T.);
#56=FACE_OUTER_BOUND('',#87,.T.);
#57=FACE_OUTER_BOUND('',#89,.T.);
#58=FACE_OUTER_BOUND('',#90,.T.);
#59=FACE_OUTER_BOUND('',#92,.T.);
#60=EDGE_LOOP('',(#246,#247,#248,#249));
#61=EDGE_LOOP('',(#250,#251,#252,#253));
#62=EDGE_LOOP('',(#254,#255,#256,#257));
#63=EDGE_LOOP('',(#258,#259,#260,#261));
#64=EDGE_LOOP('',(#262,#263,#264,#265));
#65=EDGE_LOOP('',(#266,#267,#268,#269));
#66=EDGE_LOOP('',(#270,#271,#272,#273));
#67=EDGE_LOOP('',(#274,#275,#276,#277));
#68=EDGE_LOOP('',(#278,#279,#280,#281));
#69=EDGE_LOOP('',(#282,#283,#284,#285));
#70=EDGE_LOOP('',(#286,#287,#288,#289,#290,#291,#292,#293));
#71=EDGE_LOOP('',(#294));
#72=EDGE_LOOP('',(#295));
#73=EDGE_LOOP('',(#296));
#74=EDGE_LOOP('',(#297));
#75=EDGE_LOOP('',(#298));
#76=EDGE_LOOP('',(#299,#300,#301,#302,#303,#304,#305,#306));
#77=EDGE_LOOP('',(#307));
#78=EDGE_LOOP('',(#308));
#79=EDGE_LOOP('',(#309));
#80=EDGE_LOOP('',(#310));
#81=EDGE_LOOP('',(#311));
#82=EDGE_LOOP('',(#312,#313,#314,#315));
#83=EDGE_LOOP('',(#316,#317,#318,#319));
#84=EDGE_LOOP('',(#320,#321,#322,#323));
#85=EDGE_LOOP('',(#324,#325,#326,#327));
#86=EDGE_LOOP('',(#328,#329,#330,#331));
#87=EDGE_LOOP('',(#332));
#88=EDGE_LOOP('',(#333));
#89=EDGE_LOOP('',(#334,#335,#336,#337));
#90=EDGE_LOOP('',(#338));
#91=EDGE_LOOP('',(#339));
#92=EDGE_LOOP('',(#340));
#93=EDGE_LOOP('',(#341));
#94=LINE('',#556,#118);
#95=LINE('',#562,#119);
#96=LINE('',#567,#120);
#97=LINE('',#569,#121);
#98=LINE('',#571,#122);
#99=LINE('',#572,#123);
#100=LINE('',#578,#124);
#101=LINE('',#581,#125);
#102=LINE('',#583,#126);
#103=LINE('',#584,#127);
#104=LINE('',#590,#128);
#105=LINE('',#593,#129);
#106=LINE('',#595,#130);
#107=LINE('',#596,#131);
#108=LINE('',#602,#132);
#109=LINE('',#605,#133);
#110=LINE('',#607,#134);
#111=LINE('',#608,#135);
#112=LINE('',#627,#136);
#113=LINE('',#629,#137);
#114=LINE('',#631,#138);
#115=LINE('',#636,#139);
#116=LINE('',#642,#140);
#117=LINE('',#649,#141);
#118=VECTOR('',#441,100.);
#119=VECTOR('',#448,7.99999999999999);
#120=VECTOR('',#453,10.);
#121=VECTOR('',#454,10.);
#122=VECTOR('',#455,10.);
#123=VECTOR('',#456,10.);
#124=VECTOR('',#463,10.);
#125=VECTOR('',#466,10.);
#126=VECTOR('',#467,10.);
#127=VECTOR('',#468,10.);
#128=VECTOR('',#475,10.);
#129=VECTOR('',#478,10.);
#130=VECTOR('',#479,10.);
#131=VECTOR('',#480,10.);
#132=VECTOR('',#487,10.);
#133=VECTOR('',#490,10.);
#134=VECTOR('',#491,10.);
#135=VECTOR('',#492,10.);
#136=VECTOR('',#517,7.99999999999999);
#137=VECTOR('',#520,7.99999999999999);
#138=VECTOR('',#523,7.99999999999999);
#139=VECTOR('',#528,11.);
#140=VECTOR('',#535,11.8);
#141=VECTOR('',#544,16.);
#142=CIRCLE('',#391,100.);
#143=CIRCLE('',#392,100.);
#144=CIRCLE('',#394,7.99999999999999);
#145=CIRCLE('',#395,7.99999999999999);
#146=CIRCLE('',#398,20.);
#147=CIRCLE('',#399,20.);
#148=CIRCLE('',#402,20.);
#149=CIRCLE('',#403,20.);
#150=CIRCLE('',#406,20.);
#151=CIRCLE('',#407,20.);
#152=CIRCLE('',#410,20.);
#153=CIRCLE('',#411,20.);
#154=CIRCLE('',#413,7.99999999999999);
#155=CIRCLE('',#414,7.99999999999999);
#156=CIRCLE('',#415,7.99999999999999);
#157=CIRCLE('',#417,7.99999999999999);
#158=CIRCLE('',#418,7.99999999999999);
#159=CIRCLE('',#419,7.99999999999999);
#160=CIRCLE('',#424,11.);
#161=CIRCLE('',#425,11.);
#162=CIRCLE('',#427,11.8);
#163=CIRCLE('',#428,11.8);
#164=CIRCLE('',#431,16.);
#165=CIRCLE('',#432,16.);
#166=VERTEX_POINT('',#553);
#167=VERTEX_POINT('',#555);
#168=VERTEX_POINT('',#559);
#169=VERTEX_POINT('',#561);
#170=VERTEX_POINT('',#565);
#171=VERTEX_POINT('',#566);
#172=VERTEX_POINT('',#568);
#173=VERTEX_POINT('',#570);
#174=VERTEX_POINT('',#574);
#175=VERTEX_POINT('',#576);
#176=VERTEX_POINT('',#580);
#177=VERTEX_POINT('',#582);
#178=VERTEX_POINT('',#586);
#179=VERTEX_POINT('',#588);
#180=VERTEX_POINT('',#592);
#181=VERTEX_POINT('',#594);
#182=VERTEX_POINT('',#598);
#183=VERTEX_POINT('',#600);
#184=VERTEX_POINT('',#604);
#185=VERTEX_POINT('',#606);
#186=VERTEX_POINT('',#613);
#187=VERTEX_POINT('',#615);
#188=VERTEX_POINT('',#617);
#189=VERTEX_POINT('',#620);
#190=VERTEX_POINT('',#622);
#191=VERTEX_POINT('',#624);
#192=VERTEX_POINT('',#633);
#193=VERTEX_POINT('',#635);
#194=VERTEX_POINT('',#639);
#195=VERTEX_POINT('',#641);
#196=VERTEX_POINT('',#646);
#197=VERTEX_POINT('',#648);
#198=EDGE_CURVE('',#166,#166,#142,.T.);
#199=EDGE_CURVE('',#166,#167,#94,.T.);
#200=EDGE_CURVE('',#167,#167,#143,.T.);
#201=EDGE_CURVE('',#168,#168,#144,.T.);
#202=EDGE_CURVE('',#168,#169,#95,.T.);
#203=EDGE_CURVE('',#169,#169,#145,.T.);
#204=EDGE_CURVE('',#170,#171,#96,.T.);
#205=EDGE_CURVE('',#170,#172,#97,.T.);
#206=EDGE_CURVE('',#173,#172,#98,.T.);
#207=EDGE_CURVE('',#171,#173,#99,.T.);
#208=EDGE_CURVE('',#174,#171,#146,.T.);
#209=EDGE_CURVE('',#175,#173,#147,.T.);
#210=EDGE_CURVE('',#174,#175,#100,.T.);
#211=EDGE_CURVE('',#174,#176,#101,.T.);
#212=EDGE_CURVE('',#177,#175,#102,.T.);
#213=EDGE_CURVE('',#176,#177,#103,.T.);
#214=EDGE_CURVE('',#178,#176,#148,.T.);
#215=EDGE_CURVE('',#179,#177,#149,.T.);
#216=EDGE_CURVE('',#178,#179,#104,.T.);
#217=EDGE_CURVE('',#178,#180,#105,.T.);
#218=EDGE_CURVE('',#181,#179,#106,.T.);
#219=EDGE_CURVE('',#180,#181,#107,.T.);
#220=EDGE_CURVE('',#182,#180,#150,.T.);
#221=EDGE_CURVE('',#183,#181,#151,.T.);
#222=EDGE_CURVE('',#182,#183,#108,.T.);
#223=EDGE_CURVE('',#182,#184,#109,.T.);
#224=EDGE_CURVE('',#185,#183,#110,.T.);
#225=EDGE_CURVE('',#184,#185,#111,.T.);
#226=EDGE_CURVE('',#170,#184,#152,.T.);
#227=EDGE_CURVE('',#172,#185,#153,.T.);
#228=EDGE_CURVE('',#186,#186,#154,.T.);
#229=EDGE_CURVE('',#187,#187,#155,.T.);
#230=EDGE_CURVE('',#188,#188,#156,.T.);
#231=EDGE_CURVE('',#189,#189,#157,.T.);
#232=EDGE_CURVE('',#190,#190,#158,.T.);
#233=EDGE_CURVE('',#191,#191,#159,.T.);
#234=EDGE_CURVE('',#188,#191,#112,.T.);
#235=EDGE_CURVE('',#187,#190,#113,.T.);
#236=EDGE_CURVE('',#186,#189,#114,.T.);
#237=EDGE_CURVE('',#192,#192,#160,.T.);
#238=EDGE_CURVE('',#192,#193,#115,.T.);
#239=EDGE_CURVE('',#193,#193,#161,.T.);
#240=EDGE_CURVE('',#194,#194,#162,.T.);
#241=EDGE_CURVE('',#194,#195,#116,.T.);
#242=EDGE_CURVE('',#195,#195,#163,.T.);
#243=EDGE_CURVE('',#196,#196,#164,.T.);
#244=EDGE_CURVE('',#196,#197,#117,.T.);
#245=EDGE_CURVE('',#197,#197,#165,.T.);
#246=ORIENTED_EDGE('',*,*,#198,.F.);
#247=ORIENTED_EDGE('',*,*,#199,.T.);
#248=ORIENTED_EDGE('',*,*,#200,.F.);
#249=ORIENTED_EDGE('',*,*,#199,.F.);
#250=ORIENTED_EDGE('',*,*,#201,.F.);
#251=ORIENTED_EDGE('',*,*,#202,.T.);
#252=ORIENTED_EDGE('',*,*,#203,.F.);
#253=ORIENTED_EDGE('',*,*,#202,.F.);
#254=ORIENTED_EDGE('',*,*,#204,.F.);
#255=ORIENTED_EDGE('',*,*,#205,.T.);
#256=ORIENTED_EDGE('',*,*,#206,.F.);
#257=ORIENTED_EDGE('',*,*,#207,.F.);
#258=ORIENTED_EDGE('',*,*,#208,.T.);
#259=ORIENTED_EDGE('',*,*,#207,.T.);
#260=ORIENTED_EDGE('',*,*,#209,.F.);
#261=ORIENTED_EDGE('',*,*,#210,.F.);
#262=ORIENTED_EDGE('',*,*,#211,.F.);
#263=ORIENTED_EDGE('',*,*,#210,.T.);
#264=ORIENTED_EDGE('',*,*,#212,.F.);
#265=ORIENTED_EDGE('',*,*,#213,.F.);
#266=ORIENTED_EDGE('',*,*,#214,.T.);
#267=ORIENTED_EDGE('',*,*,#213,.T.);
#268=ORIENTED_EDGE('',*,*,#215,.F.);
#269=ORIENTED_EDGE('',*,*,#216,.F.);
#270=ORIENTED_EDGE('',*,*,#217,.F.);
#271=ORIENTED_EDGE('',*,*,#216,.T.);
#272=ORIENTED_EDGE('',*,*,#218,.F.);
#273=ORIENTED_EDGE('',*,*,#219,.F.);
#274=ORIENTED_EDGE('',*,*,#220,.T.);
#275=ORIENTED_EDGE('',*,*,#219,.T.);
#276=ORIENTED_EDGE('',*,*,#221,.F.);
#277=ORIENTED_EDGE('',*,*,#222,.F.);
#278=ORIENTED_EDGE('',*,*,#223,.F.);
#279=ORIENTED_EDGE('',*,*,#222,.T.);
#280=ORIENTED_EDGE('',*,*,#224,.F.);
#281=ORIENTED_EDGE('',*,*,#225,.F.);
#282=ORIENTED_EDGE('',*,*,#226,.T.);
#283=ORIENTED_EDGE('',*,*,#225,.T.);
#284=ORIENTED_EDGE('',*,*,#227,.F.);
#285=ORIENTED_EDGE('',*,*,#205,.F.);
#286=ORIENTED_EDGE('',*,*,#227,.T.);
#287=ORIENTED_EDGE('',*,*,#224,.T.);
#288=ORIENTED_EDGE('',*,*,#221,.T.);
#289=ORIENTED_EDGE('',*,*,#218,.T.);
#290=ORIENTED_EDGE('',*,*,#215,.T.);
#291=ORIENTED_EDGE('',*,*,#212,.T.);
#292=ORIENTED_EDGE('',*,*,#209,.T.);
#293=ORIENTED_EDGE('',*,*,#206,.T.);
#294=ORIENTED_EDGE('',*,*,#198,.T.);
#295=ORIENTED_EDGE('',*,*,#228,.T.);
#296=ORIENTED_EDGE('',*,*,#229,.F.);
#297=ORIENTED_EDGE('',*,*,#230,.F.);
#298=ORIENTED_EDGE('',*,*,#201,.T.);
#299=ORIENTED_EDGE('',*,*,#226,.F.);
#300=ORIENTED_EDGE('',*,*,#204,.T.);
#301=ORIENTED_EDGE('',*,*,#208,.F.);
#302=ORIENTED_EDGE('',*,*,#211,.T.);
#303=ORIENTED_EDGE('',*,*,#214,.F.);
#304=ORIENTED_EDGE('',*,*,#217,.T.);
#305=ORIENTED_EDGE('',*,*,#220,.F.);
#306=ORIENTED_EDGE('',*,*,#223,.T.);
#307=ORIENTED_EDGE('',*,*,#200,.T.);
#308=ORIENTED_EDGE('',*,*,#231,.T.);
#309=ORIENTED_EDGE('',*,*,#232,.F.);
#310=ORIENTED_EDGE('',*,*,#233,.F.);
#311=ORIENTED_EDGE('',*,*,#203,.T.);
#312=ORIENTED_EDGE('',*,*,#230,.T.);
#313=ORIENTED_EDGE('',*,*,#234,.T.);
#314=ORIENTED_EDGE('',*,*,#233,.T.);
#315=ORIENTED_EDGE('',*,*,#234,.F.);
#316=ORIENTED_EDGE('',*,*,#229,.T.);
#317=ORIENTED_EDGE('',*,*,#235,.T.);
#318=ORIENTED_EDGE('',*,*,#232,.T.);
#319=ORIENTED_EDGE('',*,*,#235,.F.);
#320=ORIENTED_EDGE('',*,*,#228,.F.);
#321=ORIENTED_EDGE('',*,*,#236,.T.);
#322=ORIENTED_EDGE('',*,*,#231,.F.);
#323=ORIENTED_EDGE('',*,*,#236,.F.);
#324=ORIENTED_EDGE('',*,*,#237,.F.);
#325=ORIENTED_EDGE('',*,*,#238,.T.);
#326=ORIENTED_EDGE('',*,*,#239,.F.);
#327=ORIENTED_EDGE('',*,*,#238,.F.);
#328=ORIENTED_EDGE('',*,*,#240,.F.);
#329=ORIENTED_EDGE('',*,*,#241,.T.);
#330=ORIENTED_EDGE('',*,*,#242,.F.);
#331=ORIENTED_EDGE('',*,*,#241,.F.);
#332=ORIENTED_EDGE('',*,*,#240,.T.);
#333=ORIENTED_EDGE('',*,*,#237,.T.);
#334=ORIENTED_EDGE('',*,*,#243,.F.);
#335=ORIENTED_EDGE('',*,*,#244,.T.);
#336=ORIENTED_EDGE('',*,*,#245,.F.);
#337=ORIENTED_EDGE('',*,*,#244,.F.);
#338=ORIENTED_EDGE('',*,*,#245,.T.);
#339=ORIENTED_EDGE('',*,*,#239,.T.);
#340=ORIENTED_EDGE('',*,*,#243,.T.);
#341=ORIENTED_EDGE('',*,*,#242,.T.);
#342=CYLINDRICAL_SURFACE('',#390,100.);
#343=CYLINDRICAL_SURFACE('',#393,7.99999999999999);
#344=CYLINDRICAL_SURFACE('',#397,20.);
#345=CYLINDRICAL_SURFACE('',#401,20.);
#346=CYLINDRICAL_SURFACE('',#405,20.);
#347=CYLINDRICAL_SURFACE('',#409,20.);
#348=CYLINDRICAL_SURFACE('',#420,7.99999999999999);
#349=CYLINDRICAL_SURFACE('',#421,7.99999999999999);
#350=CYLINDRICAL_SURFACE('',#422,7.99999999999999);
#351=CYLINDRICAL_SURFACE('',#423,11.);
#352=CYLINDRICAL_SURFACE('',#426,11.8);
#353=CYLINDRICAL_SURFACE('',#430,16.);
#354=ADVANCED_FACE('',(#39),#342,.F.);
#355=ADVANCED_FACE('',(#40),#343,.F.);
#356=ADVANCED_FACE('',(#41),#30,.T.);
#357=ADVANCED_FACE('',(#42),#344,.T.);
#358=ADVANCED_FACE('',(#43),#31,.T.);
#359=ADVANCED_FACE('',(#44),#345,.T.);
#360=ADVANCED_FACE('',(#45),#32,.T.);
#361=ADVANCED_FACE('',(#46),#346,.T.);
#362=ADVANCED_FACE('',(#47),#33,.T.);
#363=ADVANCED_FACE('',(#48),#347,.T.);
#364=ADVANCED_FACE('',(#49,#17,#18,#19,#20,#21),#34,.T.);
#365=ADVANCED_FACE('',(#50,#22,#23,#24,#25,#26),#35,.F.);
#366=ADVANCED_FACE('',(#51),#348,.F.);
#367=ADVANCED_FACE('',(#52),#349,.F.);
#368=ADVANCED_FACE('',(#53),#350,.F.);
#369=ADVANCED_FACE('',(#54),#351,.F.);
#370=ADVANCED_FACE('',(#55),#352,.T.);
#371=ADVANCED_FACE('',(#56,#27),#36,.T.);
#372=ADVANCED_FACE('',(#57),#353,.T.);
#373=ADVANCED_FACE('',(#58,#28),#37,.T.);
#374=ADVANCED_FACE('',(#59,#29),#38,.F.);
#375=CLOSED_SHELL('',(#354,#355,#356,#357,#358,#359,#360,#361,#362,#363,
#364,#365,#366,#367,#368));
#376=CLOSED_SHELL('',(#369,#370,#371,#372,#373,#374));
#377=DERIVED_UNIT_ELEMENT(#379,1.);
#378=DERIVED_UNIT_ELEMENT(#658,-3.);
#379=(
MASS_UNIT()
NAMED_UNIT(*)
SI_UNIT(.KILO.,.GRAM.)
);
#380=DERIVED_UNIT((#377,#378));
#381=MEASURE_REPRESENTATION_ITEM('density measure',
POSITIVE_RATIO_MEASURE(7850.),#380);
#382=PROPERTY_DEFINITION_REPRESENTATION(#387,#384);
#383=PROPERTY_DEFINITION_REPRESENTATION(#388,#385);
#384=REPRESENTATION('material name',(#386),#655);
#385=REPRESENTATION('density',(#381),#655);
#386=DESCRIPTIVE_REPRESENTATION_ITEM('Acero','Acero');
#387=PROPERTY_DEFINITION('material property','material name',#665);
#388=PROPERTY_DEFINITION('material property','density of part',#665);
#389=AXIS2_PLACEMENT_3D('',#551,#435,#436);
#390=AXIS2_PLACEMENT_3D('',#552,#437,#438);
#391=AXIS2_PLACEMENT_3D('',#554,#439,#440);
#392=AXIS2_PLACEMENT_3D('',#557,#442,#443);
#393=AXIS2_PLACEMENT_3D('',#558,#444,#445);
#394=AXIS2_PLACEMENT_3D('',#560,#446,#447);
#395=AXIS2_PLACEMENT_3D('',#563,#449,#450);
#396=AXIS2_PLACEMENT_3D('',#564,#451,#452);
#397=AXIS2_PLACEMENT_3D('',#573,#457,#458);
#398=AXIS2_PLACEMENT_3D('',#575,#459,#460);
#399=AXIS2_PLACEMENT_3D('',#577,#461,#462);
#400=AXIS2_PLACEMENT_3D('',#579,#464,#465);
#401=AXIS2_PLACEMENT_3D('',#585,#469,#470);
#402=AXIS2_PLACEMENT_3D('',#587,#471,#472);
#403=AXIS2_PLACEMENT_3D('',#589,#473,#474);
#404=AXIS2_PLACEMENT_3D('',#591,#476,#477);
#405=AXIS2_PLACEMENT_3D('',#597,#481,#482);
#406=AXIS2_PLACEMENT_3D('',#599,#483,#484);
#407=AXIS2_PLACEMENT_3D('',#601,#485,#486);
#408=AXIS2_PLACEMENT_3D('',#603,#488,#489);
#409=AXIS2_PLACEMENT_3D('',#609,#493,#494);
#410=AXIS2_PLACEMENT_3D('',#610,#495,#496);
#411=AXIS2_PLACEMENT_3D('',#611,#497,#498);
#412=AXIS2_PLACEMENT_3D('',#612,#499,#500);
#413=AXIS2_PLACEMENT_3D('',#614,#501,#502);
#414=AXIS2_PLACEMENT_3D('',#616,#503,#504);
#415=AXIS2_PLACEMENT_3D('',#618,#505,#506);
#416=AXIS2_PLACEMENT_3D('',#619,#507,#508);
#417=AXIS2_PLACEMENT_3D('',#621,#509,#510);
#418=AXIS2_PLACEMENT_3D('',#623,#511,#512);
#419=AXIS2_PLACEMENT_3D('',#625,#513,#514);
#420=AXIS2_PLACEMENT_3D('',#626,#515,#516);
#421=AXIS2_PLACEMENT_3D('',#628,#518,#519);
#422=AXIS2_PLACEMENT_3D('',#630,#521,#522);
#423=AXIS2_PLACEMENT_3D('',#632,#524,#525);
#424=AXIS2_PLACEMENT_3D('',#634,#526,#527);
#425=AXIS2_PLACEMENT_3D('',#637,#529,#530);
#426=AXIS2_PLACEMENT_3D('',#638,#531,#532);
#427=AXIS2_PLACEMENT_3D('',#640,#533,#534);
#428=AXIS2_PLACEMENT_3D('',#643,#536,#537);
#429=AXIS2_PLACEMENT_3D('',#644,#538,#539);
#430=AXIS2_PLACEMENT_3D('',#645,#540,#541);
#431=AXIS2_PLACEMENT_3D('',#647,#542,#543);
#432=AXIS2_PLACEMENT_3D('',#650,#545,#546);
#433=AXIS2_PLACEMENT_3D('',#651,#547,#548);
#434=AXIS2_PLACEMENT_3D('',#652,#549,#550);
#435=DIRECTION('axis',(0.,0.,1.));
#436=DIRECTION('refdir',(1.,0.,0.));
#437=DIRECTION('center_axis',(0.,0.,-1.));
#438=DIRECTION('ref_axis',(-1.,0.,0.));
#439=DIRECTION('center_axis',(0.,0.,-1.));
#440=DIRECTION('ref_axis',(-1.,0.,0.));
#441=DIRECTION('',(0.,0.,-1.));
#442=DIRECTION('center_axis',(0.,0.,1.));
#443=DIRECTION('ref_axis',(-1.,0.,0.));
#444=DIRECTION('center_axis',(0.,0.,-1.));
#445=DIRECTION('ref_axis',(-1.,0.,0.));
#446=DIRECTION('center_axis',(0.,0.,-1.));
#447=DIRECTION('ref_axis',(-1.,0.,0.));
#448=DIRECTION('',(0.,0.,-1.));
#449=DIRECTION('center_axis',(0.,0.,1.));
#450=DIRECTION('ref_axis',(-1.,0.,0.));
#451=DIRECTION('center_axis',(0.,-1.,0.));
#452=DIRECTION('ref_axis',(1.,0.,0.));
#453=DIRECTION('',(-1.,0.,0.));
#454=DIRECTION('',(0.,0.,1.));
#455=DIRECTION('',(1.,0.,0.));
#456=DIRECTION('',(0.,0.,1.));
#457=DIRECTION('center_axis',(0.,0.,1.));
#458=DIRECTION('ref_axis',(-1.,1.77635683940025E-15,0.));
#459=DIRECTION('center_axis',(0.,0.,1.));
#460=DIRECTION('ref_axis',(-1.,1.77635683940025E-15,0.));
#461=DIRECTION('center_axis',(0.,0.,1.));
#462=DIRECTION('ref_axis',(-1.,1.77635683940025E-15,0.));
#463=DIRECTION('',(0.,0.,1.));
#464=DIRECTION('center_axis',(-1.,0.,0.));
#465=DIRECTION('ref_axis',(0.,-1.,0.));
#466=DIRECTION('',(0.,1.,0.));
#467=DIRECTION('',(0.,-1.,0.));
#468=DIRECTION('',(0.,0.,1.));
#469=DIRECTION('center_axis',(0.,0.,1.));
#470=DIRECTION('ref_axis',(1.77635683940025E-15,1.,0.));
#471=DIRECTION('center_axis',(0.,0.,1.));
#472=DIRECTION('ref_axis',(1.77635683940025E-15,1.,0.));
#473=DIRECTION('center_axis',(0.,0.,1.));
#474=DIRECTION('ref_axis',(1.77635683940025E-15,1.,0.));
#475=DIRECTION('',(0.,0.,1.));
#476=DIRECTION('center_axis',(0.,1.,0.));
#477=DIRECTION('ref_axis',(-1.,0.,0.));
#478=DIRECTION('',(1.,0.,0.));
#479=DIRECTION('',(-1.,0.,0.));
#480=DIRECTION('',(0.,0.,1.));
#481=DIRECTION('center_axis',(0.,0.,1.));
#482=DIRECTION('ref_axis',(1.,-1.77635683940025E-15,0.));
#483=DIRECTION('center_axis',(0.,0.,1.));
#484=DIRECTION('ref_axis',(1.,-1.77635683940025E-15,0.));
#485=DIRECTION('center_axis',(0.,0.,1.));
#486=DIRECTION('ref_axis',(1.,-1.77635683940025E-15,0.));
#487=DIRECTION('',(0.,0.,1.));
#488=DIRECTION('center_axis',(1.,0.,0.));
#489=DIRECTION('ref_axis',(0.,1.,0.));
#490=DIRECTION('',(0.,-1.,0.));
#491=DIRECTION('',(0.,1.,0.));
#492=DIRECTION('',(0.,0.,1.));
#493=DIRECTION('center_axis',(0.,0.,1.));
#494=DIRECTION('ref_axis',(-1.77635683940025E-15,-1.,0.));
#495=DIRECTION('center_axis',(0.,0.,1.));
#496=DIRECTION('ref_axis',(-1.77635683940025E-15,-1.,0.));
#497=DIRECTION('center_axis',(0.,0.,1.));
#498=DIRECTION('ref_axis',(-1.77635683940025E-15,-1.,0.));
#499=DIRECTION('center_axis',(0.,0.,1.));
#500=DIRECTION('ref_axis',(-1.,0.,0.));
#501=DIRECTION('center_axis',(0.,0.,-1.));
#502=DIRECTION('ref_axis',(1.,0.,0.));
#503=DIRECTION('center_axis',(0.,0.,1.));
#504=DIRECTION('ref_axis',(-1.,0.,0.));
#505=DIRECTION('center_axis',(0.,0.,1.));
#506=DIRECTION('ref_axis',(1.,0.,0.));
#507=DIRECTION('center_axis',(0.,0.,1.));
#508=DIRECTION('ref_axis',(-1.,0.,0.));
#509=DIRECTION('center_axis',(0.,0.,1.));
#510=DIRECTION('ref_axis',(1.,0.,0.));
#511=DIRECTION('center_axis',(0.,0.,-1.));
#512=DIRECTION('ref_axis',(-1.,0.,0.));
#513=DIRECTION('center_axis',(0.,0.,-1.));
#514=DIRECTION('ref_axis',(1.,0.,0.));
#515=DIRECTION('center_axis',(0.,0.,1.));
#516=DIRECTION('ref_axis',(1.,0.,0.));
#517=DIRECTION('',(0.,0.,-1.));
#518=DIRECTION('center_axis',(0.,0.,1.));
#519=DIRECTION('ref_axis',(-1.,0.,0.));
#520=DIRECTION('',(0.,0.,-1.));
#521=DIRECTION('center_axis',(0.,0.,-1.));
#522=DIRECTION('ref_axis',(1.,0.,0.));
#523=DIRECTION('',(0.,0.,-1.));
#524=DIRECTION('center_axis',(0.,0.,1.));
#525=DIRECTION('ref_axis',(1.,0.,0.));
#526=DIRECTION('center_axis',(0.,0.,1.));
#527=DIRECTION('ref_axis',(1.,0.,0.));
#528=DIRECTION('',(0.,0.,1.));
#529=DIRECTION('center_axis',(0.,0.,-1.));
#530=DIRECTION('ref_axis',(1.,0.,0.));
#531=DIRECTION('center_axis',(0.,0.,-1.));
#532=DIRECTION('ref_axis',(1.,0.,0.));
#533=DIRECTION('center_axis',(0.,0.,-1.));
#534=DIRECTION('ref_axis',(1.,0.,0.));
#535=DIRECTION('',(0.,0.,1.));
#536=DIRECTION('center_axis',(0.,0.,1.));
#537=DIRECTION('ref_axis',(1.,0.,0.));
#538=DIRECTION('center_axis',(0.,0.,-1.));
#539=DIRECTION('ref_axis',(1.,0.,0.));
#540=DIRECTION('center_axis',(0.,0.,-1.));
#541=DIRECTION('ref_axis',(-1.,0.,0.));
#542=DIRECTION('center_axis',(0.,0.,-1.));
#543=DIRECTION('ref_axis',(-1.,0.,0.));
#544=DIRECTION('',(0.,0.,1.));
#545=DIRECTION('center_axis',(0.,0.,1.));
#546=DIRECTION('ref_axis',(-1.,0.,0.));
#547=DIRECTION('center_axis',(0.,0.,1.));
#548=DIRECTION('ref_axis',(-1.,0.,0.));
#549=DIRECTION('center_axis',(0.,0.,1.));
#550=DIRECTION('ref_axis',(-1.,0.,0.));
#551=CARTESIAN_POINT('',(0.,0.,0.));
#552=CARTESIAN_POINT('Origin',(0.,0.,60.1));
#553=CARTESIAN_POINT('',(100.,1.22464679914735E-14,60.1));
#554=CARTESIAN_POINT('Origin',(0.,0.,60.1));
#555=CARTESIAN_POINT('',(100.,1.22464679914735E-14,60.));
#556=CARTESIAN_POINT('',(100.,-1.22464679914735E-14,60.1));
#557=CARTESIAN_POINT('Origin',(0.,0.,60.));
#558=CARTESIAN_POINT('Origin',(-93.000001385808,93.000001385808,60.1));
#559=CARTESIAN_POINT('',(-85.000001385808,93.000001385808,60.1));
#560=CARTESIAN_POINT('Origin',(-93.000001385808,93.000001385808,60.1));
#561=CARTESIAN_POINT('',(-85.000001385808,93.000001385808,60.));
#562=CARTESIAN_POINT('',(-85.000001385808,93.000001385808,60.1));
#563=CARTESIAN_POINT('Origin',(-93.000001385808,93.000001385808,60.));
#564=CARTESIAN_POINT('Origin',(-90.,-110.,60.));
#565=CARTESIAN_POINT('',(90.,-110.,60.));
#566=CARTESIAN_POINT('',(-90.,-110.,60.));
#567=CARTESIAN_POINT('',(90.,-110.,60.));
#568=CARTESIAN_POINT('',(90.,-110.,60.1));
#569=CARTESIAN_POINT('',(90.,-110.,60.));
#570=CARTESIAN_POINT('',(-90.,-110.,60.1));
#571=CARTESIAN_POINT('',(90.,-110.,60.1));
#572=CARTESIAN_POINT('',(-90.,-110.,60.));
#573=CARTESIAN_POINT('Origin',(-90.,-90.,60.));
#574=CARTESIAN_POINT('',(-110.,-90.,60.));
#575=CARTESIAN_POINT('Origin',(-90.,-90.,60.));
#576=CARTESIAN_POINT('',(-110.,-90.,60.1));
#577=CARTESIAN_POINT('Origin',(-90.,-90.,60.1));
#578=CARTESIAN_POINT('',(-110.,-90.,60.));
#579=CARTESIAN_POINT('Origin',(-110.,90.,60.));
#580=CARTESIAN_POINT('',(-110.,90.,60.));
#581=CARTESIAN_POINT('',(-110.,-90.,60.));
#582=CARTESIAN_POINT('',(-110.,90.,60.1));
#583=CARTESIAN_POINT('',(-110.,-90.,60.1));
#584=CARTESIAN_POINT('',(-110.,90.,60.));
#585=CARTESIAN_POINT('Origin',(-90.,90.,60.));
#586=CARTESIAN_POINT('',(-90.,110.,60.));
#587=CARTESIAN_POINT('Origin',(-90.,90.,60.));
#588=CARTESIAN_POINT('',(-90.,110.,60.1));
#589=CARTESIAN_POINT('Origin',(-90.,90.,60.1));
#590=CARTESIAN_POINT('',(-90.,110.,60.));
#591=CARTESIAN_POINT('Origin',(90.,110.,60.));
#592=CARTESIAN_POINT('',(90.,110.,60.));
#593=CARTESIAN_POINT('',(-90.,110.,60.));
#594=CARTESIAN_POINT('',(90.,110.,60.1));
#595=CARTESIAN_POINT('',(-90.,110.,60.1));
#596=CARTESIAN_POINT('',(90.,110.,60.));
#597=CARTESIAN_POINT('Origin',(90.,90.,60.));
#598=CARTESIAN_POINT('',(110.,90.,60.));
#599=CARTESIAN_POINT('Origin',(90.,90.,60.));
#600=CARTESIAN_POINT('',(110.,90.,60.1));
#601=CARTESIAN_POINT('Origin',(90.,90.,60.1));
#602=CARTESIAN_POINT('',(110.,90.,60.));
#603=CARTESIAN_POINT('Origin',(110.,-90.,60.));
#604=CARTESIAN_POINT('',(110.,-90.,60.));
#605=CARTESIAN_POINT('',(110.,90.,60.));
#606=CARTESIAN_POINT('',(110.,-90.,60.1));
#607=CARTESIAN_POINT('',(110.,90.,60.1));
#608=CARTESIAN_POINT('',(110.,-90.,60.));
#609=CARTESIAN_POINT('Origin',(90.,-90.,60.));
#610=CARTESIAN_POINT('Origin',(90.,-90.,60.));
#611=CARTESIAN_POINT('Origin',(90.,-90.,60.1));
#612=CARTESIAN_POINT('Origin',(0.,0.,60.1));
#613=CARTESIAN_POINT('',(85.000001385808,-93.000001385808,60.1));
#614=CARTESIAN_POINT('Origin',(93.000001385808,-93.000001385808,60.1));
#615=CARTESIAN_POINT('',(-85.000001385808,-93.000001385808,60.1));
#616=CARTESIAN_POINT('Origin',(-93.000001385808,-93.000001385808,60.1));
#617=CARTESIAN_POINT('',(85.000001385808,93.000001385808,60.1));
#618=CARTESIAN_POINT('Origin',(93.000001385808,93.000001385808,60.1));
#619=CARTESIAN_POINT('Origin',(0.,0.,60.));
#620=CARTESIAN_POINT('',(85.000001385808,-93.000001385808,60.));
#621=CARTESIAN_POINT('Origin',(93.000001385808,-93.000001385808,60.));
#622=CARTESIAN_POINT('',(-85.000001385808,-93.000001385808,60.));
#623=CARTESIAN_POINT('Origin',(-93.000001385808,-93.000001385808,60.));
#624=CARTESIAN_POINT('',(85.000001385808,93.000001385808,60.));
#625=CARTESIAN_POINT('Origin',(93.000001385808,93.000001385808,60.));
#626=CARTESIAN_POINT('Origin',(93.000001385808,93.000001385808,60.1));
#627=CARTESIAN_POINT('',(85.000001385808,93.000001385808,60.1));
#628=CARTESIAN_POINT('Origin',(-93.000001385808,-93.000001385808,60.1));
#629=CARTESIAN_POINT('',(-85.000001385808,-93.000001385808,60.1));
#630=CARTESIAN_POINT('Origin',(93.000001385808,-93.000001385808,60.1));
#631=CARTESIAN_POINT('',(85.000001385808,-93.000001385808,60.1));
#632=CARTESIAN_POINT('Origin',(0.,0.,58.4));
#633=CARTESIAN_POINT('',(-11.,1.34711147906209E-15,58.4));
#634=CARTESIAN_POINT('Origin',(0.,0.,58.4));
#635=CARTESIAN_POINT('',(-11.,1.34711147906209E-15,60.1));
#636=CARTESIAN_POINT('',(-11.,-1.34711147906209E-15,58.4));
#637=CARTESIAN_POINT('Origin',(0.,0.,60.1));
#638=CARTESIAN_POINT('Origin',(0.,0.,60.));
#639=CARTESIAN_POINT('',(-11.8,1.44508322299388E-15,58.4));
#640=CARTESIAN_POINT('Origin',(0.,0.,58.4));
#641=CARTESIAN_POINT('',(-11.8,1.44508322299388E-15,60.));
#642=CARTESIAN_POINT('',(-11.8,1.44508322299388E-15,60.));
#643=CARTESIAN_POINT('Origin',(0.,0.,60.));
#644=CARTESIAN_POINT('Origin',(0.,0.,58.4));
#645=CARTESIAN_POINT('Origin',(0.,0.,60.1));
#646=CARTESIAN_POINT('',(16.,1.95943487863577E-15,60.));
#647=CARTESIAN_POINT('Origin',(0.,0.,60.));
#648=CARTESIAN_POINT('',(16.,1.95943487863577E-15,60.1));
#649=CARTESIAN_POINT('',(16.,-1.95943487863577E-15,60.1));
#650=CARTESIAN_POINT('Origin',(0.,0.,60.1));
#651=CARTESIAN_POINT('Origin',(0.,0.,60.1));
#652=CARTESIAN_POINT('Origin',(0.,0.,60.));
#653=UNCERTAINTY_MEASURE_WITH_UNIT(LENGTH_MEASURE(0.01),#657,
'DISTANCE_ACCURACY_VALUE',
'Maximum model space distance between geometric entities at asserted c
onnectivities');
#654=UNCERTAINTY_MEASURE_WITH_UNIT(LENGTH_MEASURE(0.01),#657,
'DISTANCE_ACCURACY_VALUE',
'Maximum model space distance between geometric entities at asserted c
onnectivities');
#655=(
GEOMETRIC_REPRESENTATION_CONTEXT(3)
GLOBAL_UNCERTAINTY_ASSIGNED_CONTEXT((#653))
GLOBAL_UNIT_ASSIGNED_CONTEXT((#657,#659,#660))
REPRESENTATION_CONTEXT('','3D')
);
#656=(
GEOMETRIC_REPRESENTATION_CONTEXT(3)
GLOBAL_UNCERTAINTY_ASSIGNED_CONTEXT((#654))
GLOBAL_UNIT_ASSIGNED_CONTEXT((#657,#659,#660))
REPRESENTATION_CONTEXT('','3D')
);
#657=(
LENGTH_UNIT()
NAMED_UNIT(*)
SI_UNIT(.MILLI.,.METRE.)
);
#658=(
LENGTH_UNIT()
NAMED_UNIT(*)
SI_UNIT($,.METRE.)
);
#659=(
NAMED_UNIT(*)
PLANE_ANGLE_UNIT()
SI_UNIT($,.RADIAN.)
);
#660=(
NAMED_UNIT(*)
SI_UNIT($,.STERADIAN.)
SOLID_ANGLE_UNIT()
);
#661=SHAPE_DEFINITION_REPRESENTATION(#662,#663);
#662=PRODUCT_DEFINITION_SHAPE('',$,#665);
#663=SHAPE_REPRESENTATION('',(#389),#655);
#664=PRODUCT_DEFINITION_CONTEXT('part definition',#669,'design');
#665=PRODUCT_DEFINITION('2026-04-27-16-38-38-563','Gasket',#666,#664);
#666=PRODUCT_DEFINITION_FORMATION('',$,#671);
#667=PRODUCT_RELATED_PRODUCT_CATEGORY('Gasket','Gasket',(#671));
#668=APPLICATION_PROTOCOL_DEFINITION('international standard',
'automotive_design',2009,#669);
#669=APPLICATION_CONTEXT(
'Core Data for Automotive Mechanical Design Process');
#670=PRODUCT_CONTEXT('part definition',#669,'mechanical');
#671=PRODUCT('2026-04-27-16-38-38-563','Gasket',$,(#670));
#672=PRESENTATION_STYLE_ASSIGNMENT((#673));
#673=SURFACE_STYLE_USAGE(.BOTH.,#674);
#674=SURFACE_SIDE_STYLE('',(#675));
#675=SURFACE_STYLE_FILL_AREA(#676);
#676=FILL_AREA_STYLE('Acero - Satinado',(#677));
#677=FILL_AREA_STYLE_COLOUR('Acero - Satinado',#678);
#678=COLOUR_RGB('Acero - Satinado',0.627450980392157,0.627450980392157,
0.627450980392157);
ENDSEC;
END-ISO-10303-21;
