ISO-10303-21;
HEADER;
/* Generated by software containing ST-Developer
 * from STEP Tools, Inc. (www.steptools.com) 
 */

FILE_DESCRIPTION(
/* description */ (''),
/* implementation_level */ '2;1');

FILE_NAME(
/* name */ 'Hub.step',
/* time_stamp */ '2026-04-29T15:07:30+09:00',
/* author */ (''),
/* organization */ (''),
/* preprocessor_version */ 'ST-DEVELOPER v20.1',
/* originating_system */ 'Autodesk Translation Framework v15.8.0.0',
/* authorisation */ '');

FILE_SCHEMA (('AUTOMOTIVE_DESIGN { 1 0 10303 214 3 1 1 }'));
ENDSEC;

DATA;
#10=MECHANICAL_DESIGN_GEOMETRIC_PRESENTATION_REPRESENTATION('',(#13),#359);
#11=SHAPE_REPRESENTATION_RELATIONSHIP('SRR','None',#366,#12);
#12=ADVANCED_BREP_SHAPE_REPRESENTATION('',(#14),#358);
#13=STYLED_ITEM('',(#375),#14);
#14=MANIFOLD_SOLID_BREP('Cuerpo1',#203);
#15=FACE_BOUND('',#61,.T.);
#16=FACE_BOUND('',#69,.T.);
#17=FACE_BOUND('',#70,.T.);
#18=FACE_BOUND('',#71,.T.);
#19=FACE_BOUND('',#72,.T.);
#20=FACE_BOUND('',#73,.T.);
#21=FACE_BOUND('',#75,.T.);
#22=FACE_BOUND('',#76,.T.);
#23=FACE_BOUND('',#77,.T.);
#24=FACE_BOUND('',#78,.T.);
#25=FACE_BOUND('',#79,.T.);
#26=CIRCLE('',#219,2.59999994188547);
#27=CIRCLE('',#220,2.59999994188547);
#28=CIRCLE('',#222,4.);
#29=CIRCLE('',#224,4.);
#30=CIRCLE('',#226,1.6);
#31=CIRCLE('',#227,1.6);
#32=CIRCLE('',#229,1.6);
#33=CIRCLE('',#230,1.6);
#34=CIRCLE('',#232,1.6);
#35=CIRCLE('',#233,1.6);
#36=CIRCLE('',#235,1.6);
#37=CIRCLE('',#236,1.6);
#38=CIRCLE('',#238,11.);
#39=CIRCLE('',#239,11.);
#40=CYLINDRICAL_SURFACE('',#218,2.59999994188547);
#41=CYLINDRICAL_SURFACE('',#223,4.);
#42=CYLINDRICAL_SURFACE('',#225,1.6);
#43=CYLINDRICAL_SURFACE('',#228,1.6);
#44=CYLINDRICAL_SURFACE('',#231,1.6);
#45=CYLINDRICAL_SURFACE('',#234,1.6);
#46=CYLINDRICAL_SURFACE('',#237,11.);
#47=FACE_OUTER_BOUND('',#58,.T.);
#48=FACE_OUTER_BOUND('',#59,.T.);
#49=FACE_OUTER_BOUND('',#60,.T.);
#50=FACE_OUTER_BOUND('',#62,.T.);
#51=FACE_OUTER_BOUND('',#63,.T.);
#52=FACE_OUTER_BOUND('',#64,.T.);
#53=FACE_OUTER_BOUND('',#65,.T.);
#54=FACE_OUTER_BOUND('',#66,.T.);
#55=FACE_OUTER_BOUND('',#67,.T.);
#56=FACE_OUTER_BOUND('',#68,.T.);
#57=FACE_OUTER_BOUND('',#74,.T.);
#58=EDGE_LOOP('',(#140,#141,#142,#143));
#59=EDGE_LOOP('',(#144,#145,#146,#147));
#60=EDGE_LOOP('',(#148));
#61=EDGE_LOOP('',(#149,#150));
#62=EDGE_LOOP('',(#151,#152,#153,#154));
#63=EDGE_LOOP('',(#155,#156,#157,#158));
#64=EDGE_LOOP('',(#159,#160,#161,#162));
#65=EDGE_LOOP('',(#163,#164,#165,#166));
#66=EDGE_LOOP('',(#167,#168,#169,#170));
#67=EDGE_LOOP('',(#171,#172,#173,#174));
#68=EDGE_LOOP('',(#175));
#69=EDGE_LOOP('',(#176));
#70=EDGE_LOOP('',(#177));
#71=EDGE_LOOP('',(#178));
#72=EDGE_LOOP('',(#179));
#73=EDGE_LOOP('',(#180));
#74=EDGE_LOOP('',(#181));
#75=EDGE_LOOP('',(#182,#183));
#76=EDGE_LOOP('',(#184));
#77=EDGE_LOOP('',(#185));
#78=EDGE_LOOP('',(#186));
#79=EDGE_LOOP('',(#187));
#80=LINE('',#308,#90);
#81=LINE('',#310,#91);
#82=LINE('',#312,#92);
#83=LINE('',#313,#93);
#84=LINE('',#322,#94);
#85=LINE('',#328,#95);
#86=LINE('',#334,#96);
#87=LINE('',#340,#97);
#88=LINE('',#346,#98);
#89=LINE('',#352,#99);
#90=VECTOR('',#246,10.);
#91=VECTOR('',#247,10.);
#92=VECTOR('',#248,10.);
#93=VECTOR('',#249,10.);
#94=VECTOR('',#262,4.);
#95=VECTOR('',#269,1.6);
#96=VECTOR('',#276,1.6);
#97=VECTOR('',#283,1.6);
#98=VECTOR('',#290,1.6);
#99=VECTOR('',#297,11.);
#100=VERTEX_POINT('',#306);
#101=VERTEX_POINT('',#307);
#102=VERTEX_POINT('',#309);
#103=VERTEX_POINT('',#311);
#104=VERTEX_POINT('',#318);
#105=VERTEX_POINT('',#321);
#106=VERTEX_POINT('',#325);
#107=VERTEX_POINT('',#327);
#108=VERTEX_POINT('',#331);
#109=VERTEX_POINT('',#333);
#110=VERTEX_POINT('',#337);
#111=VERTEX_POINT('',#339);
#112=VERTEX_POINT('',#343);
#113=VERTEX_POINT('',#345);
#114=VERTEX_POINT('',#349);
#115=VERTEX_POINT('',#351);
#116=EDGE_CURVE('',#100,#101,#80,.T.);
#117=EDGE_CURVE('',#100,#102,#81,.T.);
#118=EDGE_CURVE('',#103,#102,#82,.T.);
#119=EDGE_CURVE('',#101,#103,#83,.T.);
#120=EDGE_CURVE('',#101,#100,#26,.T.);
#121=EDGE_CURVE('',#102,#103,#27,.T.);
#122=EDGE_CURVE('',#104,#104,#28,.T.);
#123=EDGE_CURVE('',#104,#105,#84,.T.);
#124=EDGE_CURVE('',#105,#105,#29,.T.);
#125=EDGE_CURVE('',#106,#106,#30,.T.);
#126=EDGE_CURVE('',#106,#107,#85,.T.);
#127=EDGE_CURVE('',#107,#107,#31,.T.);
#128=EDGE_CURVE('',#108,#108,#32,.T.);
#129=EDGE_CURVE('',#108,#109,#86,.T.);
#130=EDGE_CURVE('',#109,#109,#33,.T.);
#131=EDGE_CURVE('',#110,#110,#34,.T.);
#132=EDGE_CURVE('',#110,#111,#87,.T.);
#133=EDGE_CURVE('',#111,#111,#35,.T.);
#134=EDGE_CURVE('',#112,#112,#36,.T.);
#135=EDGE_CURVE('',#112,#113,#88,.T.);
#136=EDGE_CURVE('',#113,#113,#37,.T.);
#137=EDGE_CURVE('',#114,#114,#38,.T.);
#138=EDGE_CURVE('',#114,#115,#89,.T.);
#139=EDGE_CURVE('',#115,#115,#39,.T.);
#140=ORIENTED_EDGE('',*,*,#116,.F.);
#141=ORIENTED_EDGE('',*,*,#117,.T.);
#142=ORIENTED_EDGE('',*,*,#118,.F.);
#143=ORIENTED_EDGE('',*,*,#119,.F.);
#144=ORIENTED_EDGE('',*,*,#120,.F.);
#145=ORIENTED_EDGE('',*,*,#119,.T.);
#146=ORIENTED_EDGE('',*,*,#121,.F.);
#147=ORIENTED_EDGE('',*,*,#117,.F.);
#148=ORIENTED_EDGE('',*,*,#122,.T.);
#149=ORIENTED_EDGE('',*,*,#116,.T.);
#150=ORIENTED_EDGE('',*,*,#120,.T.);
#151=ORIENTED_EDGE('',*,*,#122,.F.);
#152=ORIENTED_EDGE('',*,*,#123,.T.);
#153=ORIENTED_EDGE('',*,*,#124,.F.);
#154=ORIENTED_EDGE('',*,*,#123,.F.);
#155=ORIENTED_EDGE('',*,*,#125,.F.);
#156=ORIENTED_EDGE('',*,*,#126,.T.);
#157=ORIENTED_EDGE('',*,*,#127,.T.);
#158=ORIENTED_EDGE('',*,*,#126,.F.);
#159=ORIENTED_EDGE('',*,*,#128,.F.);
#160=ORIENTED_EDGE('',*,*,#129,.T.);
#161=ORIENTED_EDGE('',*,*,#130,.T.);
#162=ORIENTED_EDGE('',*,*,#129,.F.);
#163=ORIENTED_EDGE('',*,*,#131,.F.);
#164=ORIENTED_EDGE('',*,*,#132,.T.);
#165=ORIENTED_EDGE('',*,*,#133,.T.);
#166=ORIENTED_EDGE('',*,*,#132,.F.);
#167=ORIENTED_EDGE('',*,*,#134,.F.);
#168=ORIENTED_EDGE('',*,*,#135,.T.);
#169=ORIENTED_EDGE('',*,*,#136,.T.);
#170=ORIENTED_EDGE('',*,*,#135,.F.);
#171=ORIENTED_EDGE('',*,*,#137,.F.);
#172=ORIENTED_EDGE('',*,*,#138,.T.);
#173=ORIENTED_EDGE('',*,*,#139,.T.);
#174=ORIENTED_EDGE('',*,*,#138,.F.);
#175=ORIENTED_EDGE('',*,*,#137,.T.);
#176=ORIENTED_EDGE('',*,*,#124,.T.);
#177=ORIENTED_EDGE('',*,*,#134,.T.);
#178=ORIENTED_EDGE('',*,*,#131,.T.);
#179=ORIENTED_EDGE('',*,*,#128,.T.);
#180=ORIENTED_EDGE('',*,*,#125,.T.);
#181=ORIENTED_EDGE('',*,*,#139,.F.);
#182=ORIENTED_EDGE('',*,*,#118,.T.);
#183=ORIENTED_EDGE('',*,*,#121,.T.);
#184=ORIENTED_EDGE('',*,*,#136,.F.);
#185=ORIENTED_EDGE('',*,*,#133,.F.);
#186=ORIENTED_EDGE('',*,*,#130,.F.);
#187=ORIENTED_EDGE('',*,*,#127,.F.);
#188=PLANE('',#217);
#189=PLANE('',#221);
#190=PLANE('',#240);
#191=PLANE('',#241);
#192=ADVANCED_FACE('',(#47),#188,.F.);
#193=ADVANCED_FACE('',(#48),#40,.F.);
#194=ADVANCED_FACE('',(#49,#15),#189,.T.);
#195=ADVANCED_FACE('',(#50),#41,.T.);
#196=ADVANCED_FACE('',(#51),#42,.F.);
#197=ADVANCED_FACE('',(#52),#43,.F.);
#198=ADVANCED_FACE('',(#53),#44,.F.);
#199=ADVANCED_FACE('',(#54),#45,.F.);
#200=ADVANCED_FACE('',(#55),#46,.T.);
#201=ADVANCED_FACE('',(#56,#16,#17,#18,#19,#20),#190,.T.);
#202=ADVANCED_FACE('',(#57,#21,#22,#23,#24,#25),#191,.F.);
#203=CLOSED_SHELL('',(#192,#193,#194,#195,#196,#197,#198,#199,#200,#201,
#202));
#204=DERIVED_UNIT_ELEMENT(#206,1.);
#205=DERIVED_UNIT_ELEMENT(#361,-3.);
#206=(
MASS_UNIT()
NAMED_UNIT(*)
SI_UNIT(.KILO.,.GRAM.)
);
#207=DERIVED_UNIT((#204,#205));
#208=MEASURE_REPRESENTATION_ITEM('density measure',
POSITIVE_RATIO_MEASURE(7850.),#207);
#209=PROPERTY_DEFINITION_REPRESENTATION(#214,#211);
#210=PROPERTY_DEFINITION_REPRESENTATION(#215,#212);
#211=REPRESENTATION('material name',(#213),#358);
#212=REPRESENTATION('density',(#208),#358);
#213=DESCRIPTIVE_REPRESENTATION_ITEM('Acero','Acero');
#214=PROPERTY_DEFINITION('material property','material name',#368);
#215=PROPERTY_DEFINITION('material property','density of part',#368);
#216=AXIS2_PLACEMENT_3D('',#304,#242,#243);
#217=AXIS2_PLACEMENT_3D('',#305,#244,#245);
#218=AXIS2_PLACEMENT_3D('',#314,#250,#251);
#219=AXIS2_PLACEMENT_3D('',#315,#252,#253);
#220=AXIS2_PLACEMENT_3D('',#316,#254,#255);
#221=AXIS2_PLACEMENT_3D('',#317,#256,#257);
#222=AXIS2_PLACEMENT_3D('',#319,#258,#259);
#223=AXIS2_PLACEMENT_3D('',#320,#260,#261);
#224=AXIS2_PLACEMENT_3D('',#323,#263,#264);
#225=AXIS2_PLACEMENT_3D('',#324,#265,#266);
#226=AXIS2_PLACEMENT_3D('',#326,#267,#268);
#227=AXIS2_PLACEMENT_3D('',#329,#270,#271);
#228=AXIS2_PLACEMENT_3D('',#330,#272,#273);
#229=AXIS2_PLACEMENT_3D('',#332,#274,#275);
#230=AXIS2_PLACEMENT_3D('',#335,#277,#278);
#231=AXIS2_PLACEMENT_3D('',#336,#279,#280);
#232=AXIS2_PLACEMENT_3D('',#338,#281,#282);
#233=AXIS2_PLACEMENT_3D('',#341,#284,#285);
#234=AXIS2_PLACEMENT_3D('',#342,#286,#287);
#235=AXIS2_PLACEMENT_3D('',#344,#288,#289);
#236=AXIS2_PLACEMENT_3D('',#347,#291,#292);
#237=AXIS2_PLACEMENT_3D('',#348,#293,#294);
#238=AXIS2_PLACEMENT_3D('',#350,#295,#296);
#239=AXIS2_PLACEMENT_3D('',#353,#298,#299);
#240=AXIS2_PLACEMENT_3D('',#354,#300,#301);
#241=AXIS2_PLACEMENT_3D('',#355,#302,#303);
#242=DIRECTION('axis',(0.,0.,1.));
#243=DIRECTION('refdir',(1.,0.,0.));
#244=DIRECTION('center_axis',(0.,1.,0.));
#245=DIRECTION('ref_axis',(1.,0.,0.));
#246=DIRECTION('',(1.,0.,0.));
#247=DIRECTION('',(0.,0.,-1.));
#248=DIRECTION('',(-1.,0.,0.));
#249=DIRECTION('',(0.,0.,-1.));
#250=DIRECTION('center_axis',(0.,0.,-1.));
#251=DIRECTION('ref_axis',(-1.53097014452136E-8,-1.,0.));
#252=DIRECTION('center_axis',(0.,0.,-1.));
#253=DIRECTION('ref_axis',(-0.589604225763574,0.807692303393896,0.));
#254=DIRECTION('center_axis',(0.,0.,1.));
#255=DIRECTION('ref_axis',(-0.589604225763574,0.807692303393896,0.));
#256=DIRECTION('center_axis',(0.,0.,1.));
#257=DIRECTION('ref_axis',(-1.,0.,0.));
#258=DIRECTION('center_axis',(0.,0.,1.));
#259=DIRECTION('ref_axis',(-1.,0.,0.));
#260=DIRECTION('center_axis',(0.,0.,1.));
#261=DIRECTION('ref_axis',(-1.,0.,0.));
#262=DIRECTION('',(0.,0.,-1.));
#263=DIRECTION('center_axis',(0.,0.,-1.));
#264=DIRECTION('ref_axis',(-1.,0.,0.));
#265=DIRECTION('center_axis',(0.,0.,1.));
#266=DIRECTION('ref_axis',(1.,0.,0.));
#267=DIRECTION('center_axis',(0.,0.,-1.));
#268=DIRECTION('ref_axis',(1.,0.,0.));
#269=DIRECTION('',(0.,0.,-1.));
#270=DIRECTION('center_axis',(0.,0.,-1.));
#271=DIRECTION('ref_axis',(1.,0.,0.));
#272=DIRECTION('center_axis',(0.,0.,1.));
#273=DIRECTION('ref_axis',(1.,0.,0.));
#274=DIRECTION('center_axis',(0.,0.,-1.));
#275=DIRECTION('ref_axis',(1.,0.,0.));
#276=DIRECTION('',(0.,0.,-1.));
#277=DIRECTION('center_axis',(0.,0.,-1.));
#278=DIRECTION('ref_axis',(1.,0.,0.));
#279=DIRECTION('center_axis',(0.,0.,1.));
#280=DIRECTION('ref_axis',(1.,0.,0.));
#281=DIRECTION('center_axis',(0.,0.,-1.));
#282=DIRECTION('ref_axis',(1.,0.,0.));
#283=DIRECTION('',(0.,0.,-1.));
#284=DIRECTION('center_axis',(0.,0.,-1.));
#285=DIRECTION('ref_axis',(1.,0.,0.));
#286=DIRECTION('center_axis',(0.,0.,1.));
#287=DIRECTION('ref_axis',(1.,0.,0.));
#288=DIRECTION('center_axis',(0.,0.,-1.));
#289=DIRECTION('ref_axis',(1.,0.,0.));
#290=DIRECTION('',(0.,0.,-1.));
#291=DIRECTION('center_axis',(0.,0.,-1.));
#292=DIRECTION('ref_axis',(1.,0.,0.));
#293=DIRECTION('center_axis',(0.,0.,1.));
#294=DIRECTION('ref_axis',(1.,0.,0.));
#295=DIRECTION('center_axis',(0.,0.,1.));
#296=DIRECTION('ref_axis',(1.,0.,0.));
#297=DIRECTION('',(0.,0.,-1.));
#298=DIRECTION('center_axis',(0.,0.,1.));
#299=DIRECTION('ref_axis',(1.,0.,0.));
#300=DIRECTION('center_axis',(0.,0.,1.));
#301=DIRECTION('ref_axis',(1.,0.,0.));
#302=DIRECTION('center_axis',(0.,0.,1.));
#303=DIRECTION('ref_axis',(1.,0.,0.));
#304=CARTESIAN_POINT('',(0.,0.,0.));
#305=CARTESIAN_POINT('Origin',(-1.53297095272072,2.09999994188547,233.));
#306=CARTESIAN_POINT('',(-1.53297095272072,2.09999994188547,233.));
#307=CARTESIAN_POINT('',(1.53297101702146,2.09999989494681,233.));
#308=CARTESIAN_POINT('',(-0.766485476360378,2.09999994188547,233.));
#309=CARTESIAN_POINT('',(-1.53297095272072,2.09999994188547,213.));
#310=CARTESIAN_POINT('',(-1.53297095272072,2.09999994188547,233.));
#311=CARTESIAN_POINT('',(1.53297101702146,2.09999989494681,213.));
#312=CARTESIAN_POINT('',(-0.766485476360378,2.09999994188547,213.));
#313=CARTESIAN_POINT('',(1.53297101702146,2.09999989494681,233.));
#314=CARTESIAN_POINT('Origin',(0.,0.,233.));
#315=CARTESIAN_POINT('Origin',(0.,0.,233.));
#316=CARTESIAN_POINT('Origin',(0.,0.,213.));
#317=CARTESIAN_POINT('Origin',(-3.5527136788005E-14,-1.81417150442622E-14,
233.));
#318=CARTESIAN_POINT('',(3.99999999999997,-1.74860126378462E-14,233.));
#319=CARTESIAN_POINT('Origin',(-3.5527136788005E-14,-1.81764095137817E-14,
233.));
#320=CARTESIAN_POINT('Origin',(-3.5527136788005E-14,-1.81764095137817E-14,
218.));
#321=CARTESIAN_POINT('',(3.99999999999997,-1.76865507941228E-14,218.));
#322=CARTESIAN_POINT('',(3.99999999999997,-1.76865507941228E-14,218.));
#323=CARTESIAN_POINT('Origin',(-3.5527136788005E-14,-1.81764095137817E-14,
218.));
#324=CARTESIAN_POINT('Origin',(7.99999999999997,-1.53661574826993E-14,213.));
#325=CARTESIAN_POINT('',(6.39999999999997,-1.53661574826993E-14,218.));
#326=CARTESIAN_POINT('Origin',(7.99999999999997,-1.53661574826993E-14,218.));
#327=CARTESIAN_POINT('',(6.39999999999997,-1.55621009705628E-14,213.));
#328=CARTESIAN_POINT('',(6.39999999999997,-1.55621009705628E-14,213.));
#329=CARTESIAN_POINT('Origin',(7.99999999999997,-1.53661574826993E-14,213.));
#330=CARTESIAN_POINT('Origin',(-8.00000000000004,-1.53661574826993E-14,
213.));
#331=CARTESIAN_POINT('',(-9.60000000000004,-1.53661574826993E-14,218.));
#332=CARTESIAN_POINT('Origin',(-8.00000000000004,-1.53661574826993E-14,
218.));
#333=CARTESIAN_POINT('',(-9.60000000000004,-1.55621009705628E-14,213.));
#334=CARTESIAN_POINT('',(-9.60000000000004,-1.55621009705628E-14,213.));
#335=CARTESIAN_POINT('Origin',(-8.00000000000004,-1.53661574826993E-14,
213.));
#336=CARTESIAN_POINT('Origin',(-3.5527136788005E-14,7.99999999999998,213.));
#337=CARTESIAN_POINT('',(-1.60000000000004,7.99999999999998,218.));
#338=CARTESIAN_POINT('Origin',(-3.5527136788005E-14,7.99999999999998,218.));
#339=CARTESIAN_POINT('',(-1.60000000000004,7.99999999999998,213.));
#340=CARTESIAN_POINT('',(-1.60000000000004,7.99999999999998,213.));
#341=CARTESIAN_POINT('Origin',(-3.5527136788005E-14,7.99999999999998,213.));
#342=CARTESIAN_POINT('Origin',(-3.5527136788005E-14,-8.00000000000002,213.));
#343=CARTESIAN_POINT('',(-1.60000000000004,-8.00000000000002,218.));
#344=CARTESIAN_POINT('Origin',(-3.5527136788005E-14,-8.00000000000002,218.));
#345=CARTESIAN_POINT('',(-1.60000000000004,-8.00000000000002,213.));
#346=CARTESIAN_POINT('',(-1.60000000000004,-8.00000000000002,213.));
#347=CARTESIAN_POINT('Origin',(-3.5527136788005E-14,-8.00000000000002,213.));
#348=CARTESIAN_POINT('Origin',(-3.5527136788005E-14,-1.53661574826993E-14,
213.));
#349=CARTESIAN_POINT('',(-11.,-1.64763805073244E-14,218.));
#350=CARTESIAN_POINT('Origin',(-3.5527136788005E-14,-1.53661574826993E-14,
218.));
#351=CARTESIAN_POINT('',(-11.,-1.67132689617614E-14,213.));
#352=CARTESIAN_POINT('',(-11.,-1.67132689617614E-14,213.));
#353=CARTESIAN_POINT('Origin',(-3.5527136788005E-14,-1.53661574826993E-14,
213.));
#354=CARTESIAN_POINT('Origin',(-3.5527136788005E-14,-1.53661574826993E-14,
218.));
#355=CARTESIAN_POINT('Origin',(-3.5527136788005E-14,-1.53661574826993E-14,
213.));
#356=UNCERTAINTY_MEASURE_WITH_UNIT(LENGTH_MEASURE(0.01),#360,
'DISTANCE_ACCURACY_VALUE',
'Maximum model space distance between geometric entities at asserted c
onnectivities');
#357=UNCERTAINTY_MEASURE_WITH_UNIT(LENGTH_MEASURE(0.01),#360,
'DISTANCE_ACCURACY_VALUE',
'Maximum model space distance between geometric entities at asserted c
onnectivities');
#358=(
GEOMETRIC_REPRESENTATION_CONTEXT(3)
GLOBAL_UNCERTAINTY_ASSIGNED_CONTEXT((#356))
GLOBAL_UNIT_ASSIGNED_CONTEXT((#360,#362,#363))
REPRESENTATION_CONTEXT('','3D')
);
#359=(
GEOMETRIC_REPRESENTATION_CONTEXT(3)
GLOBAL_UNCERTAINTY_ASSIGNED_CONTEXT((#357))
GLOBAL_UNIT_ASSIGNED_CONTEXT((#360,#362,#363))
REPRESENTATION_CONTEXT('','3D')
);
#360=(
LENGTH_UNIT()
NAMED_UNIT(*)
SI_UNIT(.MILLI.,.METRE.)
);
#361=(
LENGTH_UNIT()
NAMED_UNIT(*)
SI_UNIT($,.METRE.)
);
#362=(
NAMED_UNIT(*)
PLANE_ANGLE_UNIT()
SI_UNIT($,.RADIAN.)
);
#363=(
NAMED_UNIT(*)
SI_UNIT($,.STERADIAN.)
SOLID_ANGLE_UNIT()
);
#364=SHAPE_DEFINITION_REPRESENTATION(#365,#366);
#365=PRODUCT_DEFINITION_SHAPE('',$,#368);
#366=SHAPE_REPRESENTATION('',(#216),#358);
#367=PRODUCT_DEFINITION_CONTEXT('part definition',#372,'design');
#368=PRODUCT_DEFINITION('2026-04-29-15-07-30-342','Hub',#369,#367);
#369=PRODUCT_DEFINITION_FORMATION('',$,#374);
#370=PRODUCT_RELATED_PRODUCT_CATEGORY('Hub','Hub',(#374));
#371=APPLICATION_PROTOCOL_DEFINITION('international standard',
'automotive_design',2009,#372);
#372=APPLICATION_CONTEXT(
'Core Data for Automotive Mechanical Design Process');
#373=PRODUCT_CONTEXT('part definition',#372,'mechanical');
#374=PRODUCT('2026-04-29-15-07-30-342','Hub',$,(#373));
#375=PRESENTATION_STYLE_ASSIGNMENT((#376));
#376=SURFACE_STYLE_USAGE(.BOTH.,#377);
#377=SURFACE_SIDE_STYLE('',(#378));
#378=SURFACE_STYLE_FILL_AREA(#379);
#379=FILL_AREA_STYLE('Acero - Satinado',(#380));
#380=FILL_AREA_STYLE_COLOUR('Acero - Satinado',#381);
#381=COLOUR_RGB('Acero - Satinado',0.627450980392157,0.627450980392157,
0.627450980392157);
ENDSEC;
END-ISO-10303-21;
